<?xml version="1.0" encoding="utf-8"?>
<!-- Generator: Adobe Illustrator 26.0.1, SVG Export Plug-In . SVG Version: 6.00 Build 0)  -->
<svg version="1.1" id="Capa_1" xmlns="http://www.w3.org/2000/svg" xmlns:xlink="http://www.w3.org/1999/xlink" x="0px" y="0px"
	 viewBox="0 0 1080 1080" style="enable-background:new 0 0 1080 1080;" xml:space="preserve">
<style type="text/css">
	.st0{fill:#283C4C;}
	.st1{font-family:'GillSansMT';}
	.st2{font-size:111.1939px;}
	.st3{letter-spacing:-11;}
	.st4{font-family:'MADETommySoft-Thin';}
	.st5{font-size:26.6867px;}
	.st6{letter-spacing:1;}
	.st7{opacity:0.3;}
	.st8{clip-path:url(#SVGID_00000057116365608195207970000010957548600526371499_);}
	.st9{opacity:0.2;}
	.st10{clip-path:url(#SVGID_00000042733144200455343730000012886940473766687625_);}
	.st11{clip-path:url(#SVGID_00000101078629514335895200000002510030643023414679_);}
</style>
<g>
	<text transform="matrix(1 0 0 1 527.5598 475.1172)" class="st0 st1 st2">CONSIGUE</text>
	<text transform="matrix(1 0 0 1 527.5598 564.0723)"><tspan x="0" y="0" class="st0 st1 st2">VEN</tspan><tspan x="209.6" y="0" class="st0 st1 st2 st3">T</tspan><tspan x="265.6" y="0" class="st0 st1 st2">AS</tspan></text>
	<text transform="matrix(1 0 0 1 532.927 612.416)"><tspan x="0" y="0" class="st0 st4 st5 st6">ES</tspan><tspan x="30.1" y="0" class="st0 st4 st5 st6">P</tspan><tspan x="46.1" y="0" class="st0 st4 st5 st6">E</tspan><tspan x="60.9" y="0" class="st0 st4 st5 st6">C</tspan><tspan x="78.2" y="0" class="st0 st4 st5 st6">IA</tspan><tspan x="104.7" y="0" class="st0 st4 st5 st6">L</tspan><tspan x="119.2" y="0" class="st0 st4 st5 st6">I</tspan><tspan x="127.5" y="0" class="st0 st4 st5">S</tspan><tspan x="141.5" y="0" class="st0 st4 st5">T</tspan><tspan x="154.8" y="0" class="st0 st4 st5 st6">AS </tspan><tspan x="195.6" y="0" class="st0 st4 st5 st6">E</tspan><tspan x="210.6" y="0" class="st0 st4 st5 st6">N</tspan><tspan x="230" y="0" class="st0 st4 st5 st6"> </tspan><tspan x="237.6" y="0" class="st0 st4 st5 st6">EMB</tspan><tspan x="292.3" y="0" class="st0 st4 st5 st6">U</tspan><tspan x="311.4" y="0" class="st0 st4 st5 st6">D</tspan><tspan x="331.1" y="0" class="st0 st4 st5 st6">O</tspan><tspan x="351.1" y="0" class="st0 st4 st5 st6">S DE VEN</tspan><tspan x="467.2" y="0" class="st0 st4 st5">T</tspan><tspan x="480.5" y="0" class="st0 st4 st5 st6">A</tspan><tspan x="498.7" y="0" class="st0 st4 st5">S</tspan></text>
	<g class="st7">
		<g>
			<defs>
				<rect id="SVGID_1_" x="137.5" y="615.7" width="350.1" height="64.1"/>
			</defs>
			<clipPath id="SVGID_00000127004207110280523760000015357135034449449891_">
				<use xlink:href="#SVGID_1_"  style="overflow:visible;"/>
			</clipPath>
			<polygon style="clip-path:url(#SVGID_00000127004207110280523760000015357135034449449891_);" points="487.6,679.7 137.5,679.8 
				201.5,615.7 292.3,637.5 			"/>
		</g>
	</g>
	<polygon class="st0" points="415.8,401.5 415.8,616.1 201.5,615.7 137.5,679.7 487.6,679.7 487.6,329.6 	"/>
	<path class="st0" d="M222.6,442c42.7-1.5,81.6,15,109.7,42.6l55.5-55.5c-41.5-41.5-99.1-67.1-162.6-66.5
		C101.8,363.7,1.1,464.5,0,587.8c-0.5,63.5,25,121,66.5,162.6l55.5-55.5c-27.6-28-44.1-66.9-42.6-109.7
		C82.2,507.8,145.2,444.8,222.6,442"/>
	<g class="st9">
		<g>
			<defs>
				<rect id="SVGID_00000099638892178904747990000012254792791313511300_" x="41.2" y="362.6" width="346.5" height="122"/>
			</defs>
			<clipPath id="SVGID_00000176755441806863121030000005087091825525823872_">
				<use xlink:href="#SVGID_00000099638892178904747990000012254792791313511300_"  style="overflow:visible;"/>
			</clipPath>
			<path style="clip-path:url(#SVGID_00000176755441806863121030000005087091825525823872_);" d="M387.7,429.1
				c-41.1-41.1-97.9-66.5-160.6-66.5c-76.9,0-144.8,38.2-185.9,96.6c36.9-25.9,81.9-41.2,130.4-41.2c62.7,0,119.5,25.4,160.6,66.5
				l0,0c0,0,0,0,0,0L387.7,429.1z"/>
		</g>
	</g>
	<g class="st7">
		<g>
			<defs>
				<rect id="SVGID_00000073712415646966955140000016346188327642759558_" x="57.6" y="512.7" width="64.3" height="226.8"/>
			</defs>
			<clipPath id="SVGID_00000155138292820309127160000001641211837744424884_">
				<use xlink:href="#SVGID_00000073712415646966955140000016346188327642759558_"  style="overflow:visible;"/>
			</clipPath>
			<path style="clip-path:url(#SVGID_00000155138292820309127160000001641211837744424884_);" d="M101.2,512.7
				c-27,37.1-43.2,82.6-43.6,131.6c-0.3,34,6.9,66.2,19.9,95.2l44.3-44.3c-27.6-28.1-44.2-67.1-42.7-110
				C80.1,558.7,88.1,533.9,101.2,512.7"/>
		</g>
	</g>
</g>
</svg>
