<?xml version="1.0" encoding="UTF-8"?>
<svg id="Capa_1" data-name="Capa 1" xmlns="http://www.w3.org/2000/svg" viewBox="0 0 1080 932.03">
  <polygon points="920.97 159.25 920.97 634.57 446.32 633.68 304.56 775.44 1080 775.44 1080 0 920.97 159.25" style="fill: #fff;"/>
  <polygon points="645.22 682.85 444.1 634.57 302.35 776.54 1077.79 776.32 645.22 682.85" style="fill: #ccc;"/>
  <path d="m498.81,73.09C225.49,75.53,2.45,298.79.02,571.89c-1.11,140.65,55.37,268,147.29,360.14l122.93-122.93c-61.13-62.02-97.68-148.18-94.35-242.97,6.2-171.43,145.74-310.97,317.17-317.17,94.8-3.32,180.74,33.22,242.97,94.35l122.93-122.93c-91.92-91.92-219.5-148.62-360.14-147.29Z" style="fill: #fff;"/>
  <path d="m503.02,73.09c-170.33,0-320.72,84.61-411.75,213.96,81.73-57.37,181.4-91.25,288.82-91.25,138.87,0,264.68,56.26,355.71,147.29l122.93-122.71c-91.03-91.03-216.84-147.29-355.71-147.29Z" style="fill: #ccc;"/>
  <path d="m175.88,565.46c2-58.47,19.71-113.4,48.95-160.58-60.02,82.17-95.68,182.95-96.57,291.48-.66,75.31,15.28,146.63,44.08,210.86l98.12-98.12c-61.13-62.24-97.9-148.62-94.58-243.64Z" style="fill: #ccc;"/>
</svg>