<?xml version="1.0" encoding="UTF-8"?>
<svg id="Capa_1" data-name="Capa 1" xmlns="http://www.w3.org/2000/svg" viewBox="0 0 1080 421.07">
  <g>
    <path d="m553.06,128.48c-5.6-5.4-8.51-12.21-8.51-20.51s2.9-15.11,8.61-20.61c5.7-5.5,12.91-8.21,21.61-8.21s17.11,2.5,26.02,7.6v-11.71c-9.71-4.2-18.61-6.2-26.52-6.2-11.51,0-21.31,3.8-29.12,11.31-7.9,7.5-11.81,16.81-11.81,27.92,0,6.9,1.7,13.41,5.2,19.41,3.4,6,8.11,10.71,14.01,14.11,5.9,3.4,13.11,5.1,21.61,5.1,10.41,0,19.61-2.2,27.62-6.5v-11.91c-8.81,5.6-17.71,8.51-26.92,8.51-8.91-.3-16.21-3-21.81-8.3Z" style="fill: #fff;"/>
    <path d="m681.54,79.75c-7.8-7.4-17.61-11.11-29.32-11.11s-21.41,3.7-29.12,11.11-11.51,16.81-11.51,28.12,3.8,20.21,11.41,27.62c7.6,7.3,17.11,11.01,28.62,11.01s21.91-3.7,29.82-11.01c7.9-7.3,11.81-16.61,11.81-27.82,0-11.21-3.9-20.51-11.71-27.92Zm-7.9,48.43c-5.7,5.5-12.71,8.31-21.21,8.31s-15.41-2.7-21.01-8.11c-5.6-5.4-8.41-12.21-8.41-20.41s2.8-15.41,8.41-20.81c5.6-5.4,12.71-8.11,21.41-8.11,8.21,0,15.21,2.7,20.91,8.21,5.7,5.5,8.51,12.21,8.51,20.31-.2,8.2-3,15.01-8.61,20.61Z" style="fill: #fff;"/>
    <polygon points="767 128.68 715.77 69.74 706.96 69.74 706.96 145.59 717.17 145.59 717.17 87.16 767.9 145.59 777.31 145.59 777.31 69.74 767 69.74 767 128.68" style="fill: #fff;"/>
    <path d="m818.63,104.87l-8.31-4.9c-3.7-2.2-6.4-4.3-8.11-6.2-1.7-2-2.5-4.1-2.5-6.4,0-2.6,1.1-4.7,3.4-6.3,2.3-1.6,5.2-2.5,8.71-2.5,6.3,0,12.21,2.6,17.61,7.9v-12.31c-5.3-3.6-11.11-5.3-17.41-5.3s-12.01,1.9-16.21,5.6c-4.1,3.7-6.2,8.61-6.2,14.61,0,4,1.1,7.5,3.3,10.61,2.2,3.1,5.9,6.2,11.01,9.31l8.31,5c6.7,4.1,10.01,8.51,10.01,13.11,0,2.8-1.1,5.2-3.4,7.1-2.3,1.9-5.1,2.8-8.51,2.8-7.71,0-14.51-3.7-20.41-11.11v13.81c6.2,4.6,13.01,6.9,20.51,6.9,6.5,0,11.81-1.9,15.91-5.7,4.1-3.8,6.1-8.71,6.1-14.81.1-8.71-4.5-15.71-13.81-21.21Z" style="fill: #fff;"/>
    <rect x="844.55" y="69.74" width="10.91" height="75.85" style="fill: #fff;"/>
    <path d="m913.19,117.87h.1s14.61,0,14.61,0v15.81l-1,.3c-6,2-11.21,3-15.61,3-8.91,0-16.31-2.7-21.91-8.21-5.6-5.5-8.51-12.51-8.51-21.11s2.8-15.11,8.51-20.81c5.7-5.7,12.71-8.51,21.01-8.51,8.91,0,17.91,2.6,26.92,7.9v-11.11c-5.9-2.5-10.71-4.2-14.61-5.1-3.8-.9-7.91-1.4-12.21-1.4-11.71,0-21.51,3.8-29.32,11.31s-11.71,17.01-11.71,28.32,3.8,19.81,11.31,27.12c7.5,7.3,17.51,11.01,30.12,11.01,9.21,0,18.51-2,27.82-6.1v-32.12h-25.52v9.71Z" style="fill: #fff;"/>
    <path d="m1007.65,112.77h-.2c0,6-.5,10.21-1.4,12.71-.9,2.5-2.5,4.6-4.6,6.4-4.1,3.4-9.31,5-15.71,5-4.5,0-8.51-.8-11.81-2.5-3.3-1.7-5.8-3.9-7.4-6.7-1.6-2.8-2.4-7.71-2.4-14.91v-43.13h-10.91v42.93c0,6.1.4,10.61,1.2,13.51.8,2.9,1.8,5.3,3.1,7.2,1.2,2,2.8,3.8,4.6,5.3,6,5.1,13.91,7.71,23.82,7.71s17.61-2.6,23.62-7.8c1.8-1.6,3.3-3.3,4.6-5.3,1.2-2,2.3-4.4,3.1-7.4.8-3,1.3-7.4,1.3-13.21v-43.13h-10.91v43.33Z" style="fill: #fff;"/>
    <polygon points="1044.28 135.79 1044.28 112.27 1075.4 112.27 1075.4 102.57 1044.28 102.57 1044.28 79.35 1076.5 79.35 1076.5 69.74 1033.47 69.74 1033.47 145.49 1077.5 145.49 1077.5 135.79 1044.28 135.79" style="fill: #fff;"/>
  </g>
  <g>
    <polygon points="561.67 212.04 538.85 158.7 527.95 158.7 560.57 234.95 563.07 234.95 595.19 158.7 584.38 158.7 561.67 212.04" style="fill: #fff;"/>
    <polygon points="614.3 201.23 645.42 201.23 645.42 191.52 614.3 191.52 614.3 168.41 646.52 168.41 646.52 158.7 603.49 158.7 603.49 234.55 647.52 234.55 647.52 224.84 614.3 224.84 614.3 201.23" style="fill: #fff;"/>
    <polygon points="719.37 217.64 668.24 158.7 659.43 158.7 659.43 234.65 669.64 234.65 669.64 176.21 720.37 234.65 729.78 234.65 729.78 158.7 719.37 158.7 719.37 217.64" style="fill: #fff;"/>
    <polygon points="802.92 158.6 739.58 158.6 739.58 168.31 765.6 168.31 765.6 234.65 776.51 234.65 776.51 168.31 802.92 168.31 802.92 158.6" style="fill: #fff;"/>
    <path d="m826.24,158.3l-32.62,76.35h11.21l9.51-22.51h32.42l10.11,22.51h11.11l-34.02-76.35h-7.71Zm-7.6,44.13l11.31-27.52,12.21,27.52h-23.52Z" style="fill: #fff;"/>
    <path d="m901.39,193.82l-8.31-4.9c-3.7-2.2-6.4-4.3-8.11-6.2-1.7-2-2.5-4.1-2.5-6.4,0-2.6,1.1-4.7,3.4-6.3,2.3-1.6,5.2-2.5,8.71-2.5,6.3,0,12.21,2.6,17.61,7.9v-12.31c-5.3-3.6-11.11-5.3-17.41-5.3s-12.01,1.9-16.21,5.6c-4.1,3.7-6.2,8.61-6.2,14.61,0,4,1.1,7.5,3.3,10.61,2.2,3.1,5.9,6.2,11.01,9.31l8.31,5c6.7,4.1,10.01,8.51,10.01,13.11,0,2.8-1.1,5.2-3.4,7.1s-5.1,2.8-8.51,2.8c-7.71,0-14.51-3.7-20.41-11.11v13.71c6.2,4.6,13.01,6.9,20.51,6.9,6.5,0,11.81-1.9,15.91-5.7,4.1-3.8,6.1-8.71,6.1-14.81.1-8.51-4.6-15.61-13.81-21.11Z" style="fill: #fff;"/>
  </g>
  <g>
    <polygon points="538.65 274.78 549.16 274.78 549.16 272.57 538.65 272.57 538.65 266.67 549.86 266.67 549.86 264.47 536.15 264.47 536.15 283.48 550.36 283.48 550.36 281.28 538.65 281.28 538.65 274.78" style="fill: #fff;"/>
    <path d="m564.87,273.48c-.8-.3-2.2-.8-4.2-1.2-2-.5-3.3-.9-3.8-1.4-.5-.4-.7-1-.7-1.7,0-.8.3-1.5,1-2,.7-.6,1.8-.8,3.3-.8s2.6.3,3.3.9c.7.6,1.2,1.5,1.3,2.7l2.4-.2c0-1.1-.4-2.1-.9-3-.6-.9-1.4-1.6-2.5-2-1.1-.4-2.3-.7-3.7-.7-1.3,0-2.4.2-3.5.6-1.1.4-1.8,1.1-2.4,1.9-.6.8-.8,1.7-.8,2.7,0,.9.2,1.7.7,2.4.4.7,1.1,1.3,2,1.8.7.4,1.9.8,3.7,1.2,1.7.4,2.9.7,3.4.9.8.3,1.4.7,1.7,1.1.3.4.5,1,.5,1.6s-.2,1.1-.5,1.6c-.4.5-.9.9-1.6,1.2-.7.3-1.6.4-2.5.4-1.1,0-2.1-.2-2.9-.6-.9-.4-1.5-.9-1.9-1.5s-.7-1.4-.8-2.3l-2.4.2c0,1.3.4,2.4,1,3.4.7,1,1.6,1.8,2.7,2.3,1.2.5,2.6.8,4.3.8,1.4,0,2.6-.2,3.7-.7,1.1-.5,1.9-1.2,2.5-2.1.6-.9.9-1.8.9-2.9,0-1-.3-1.9-.8-2.7-.6-.7-1.4-1.4-2.5-1.9Z" style="fill: #fff;"/>
    <path d="m583.98,265.57c-.6-.4-1.4-.7-2.3-.9-.7-.1-1.6-.2-2.9-.2h-7.2v19.01h2.5v-7.71h4.9c2.7,0,4.6-.6,5.6-1.7,1-1.1,1.5-2.5,1.5-4.1,0-.9-.2-1.8-.6-2.6-.3-.8-.9-1.4-1.5-1.8Zm-1.5,7c-.7.6-1.8.9-3.5.9h-4.9v-6.8h4.9c1.1,0,1.9.1,2.3.2.7.2,1.2.6,1.6,1.1.4.5.6,1.2.6,2,0,1.2-.3,2-1,2.6Z" style="fill: #fff;"/>
    <polygon points="591.89 274.78 602.39 274.78 602.39 272.57 591.89 272.57 591.89 266.67 603.09 266.67 603.09 264.47 589.39 264.47 589.39 283.48 603.59 283.48 603.59 281.28 591.89 281.28 591.89 274.78" style="fill: #fff;"/>
    <path d="m618.6,280.48c-1,.8-2.2,1.2-3.6,1.2-1.2,0-2.2-.3-3.2-.9-1-.6-1.7-1.5-2.2-2.7-.5-1.2-.7-2.6-.7-4.2,0-1.3.2-2.5.6-3.7.4-1.2,1.1-2.1,2.1-2.8,1-.7,2.2-1.1,3.7-1.1,1.3,0,2.3.3,3.2.9.8.6,1.5,1.6,1.9,3l2.5-.6c-.5-1.8-1.4-3.1-2.7-4.1-1.3-1-2.9-1.5-4.8-1.5-1.7,0-3.2.4-4.6,1.1-1.4.7-2.5,1.9-3.2,3.4-.8,1.5-1.1,3.2-1.1,5.2,0,1.8.3,3.5,1,5.1.7,1.6,1.6,2.8,2.9,3.6,1.3.8,3,1.3,5,1.3s3.7-.5,5-1.6c1.4-1.1,2.3-2.7,2.8-4.7l-2.5-.6c-.4,1.6-1.1,2.9-2.1,3.7Z" style="fill: #fff;"/>
    <rect x="626.71" y="264.47" width="2.5" height="19.01" style="fill: #fff;"/>
    <path d="m638.92,264.47l-7.3,19.01h2.7l2.1-5.8h8.01l2.2,5.8h2.9l-7.8-19.01h-2.8Zm-1.9,11.21l2.1-5.6c.4-1.2.8-2.4,1-3.6.3,1,.7,2.3,1.3,3.9l2,5.3h-6.4Z" style="fill: #fff;"/>
    <polygon points="653.83 264.47 651.32 264.47 651.32 283.48 663.23 283.48 663.23 281.28 653.83 281.28 653.83 264.47" style="fill: #fff;"/>
    <rect x="666.63" y="264.47" width="2.5" height="19.01" style="fill: #fff;"/>
    <path d="m684.65,273.48c-.8-.3-2.2-.8-4.2-1.2-2-.5-3.3-.9-3.8-1.4-.5-.4-.7-1-.7-1.7,0-.8.3-1.5,1-2,.7-.6,1.8-.8,3.3-.8s2.6.3,3.3.9c.7.6,1.2,1.5,1.3,2.7l2.4-.2c0-1.1-.4-2.1-.9-3-.6-.9-1.4-1.6-2.5-2-1.1-.4-2.3-.7-3.7-.7-1.3,0-2.4.2-3.5.6-1.1.4-1.8,1.1-2.4,1.9-.6.8-.8,1.7-.8,2.7,0,.9.2,1.7.7,2.4.4.7,1.1,1.3,2,1.8.7.4,1.9.8,3.7,1.2,1.7.4,2.9.7,3.4.9.8.3,1.4.7,1.7,1.1.3.4.5,1,.5,1.6s-.2,1.1-.5,1.6c-.4.5-.9.9-1.6,1.2-.7.3-1.6.4-2.5.4-1.1,0-2.1-.2-2.9-.6-.9-.4-1.5-.9-1.9-1.5-.4-.6-.7-1.4-.8-2.3l-2.4.2c0,1.3.4,2.4,1,3.4.7,1,1.6,1.8,2.7,2.3,1.2.5,2.6.8,4.3.8,1.4,0,2.6-.2,3.7-.7,1.1-.5,1.9-1.2,2.5-2.1.6-.9.9-1.8.9-2.9,0-1-.3-1.9-.8-2.7-.6-.7-1.4-1.4-2.5-1.9Z" style="fill: #fff;"/>
    <polygon points="704.96 264.47 689.85 264.47 689.85 266.67 696.15 266.67 696.15 283.48 698.66 283.48 698.66 266.67 704.96 266.67 704.96 264.47" style="fill: #fff;"/>
    <path d="m710.76,264.47l-7.3,19.01h2.7l2.1-5.8h8.01l2.2,5.8h2.9l-7.8-19.01h-2.8Zm-1.8,11.21l2.1-5.6c.4-1.2.8-2.4,1-3.6.3,1,.7,2.3,1.3,3.9l2,5.3h-6.4Z" style="fill: #fff;"/>
    <path d="m734.38,273.48c-.8-.3-2.2-.8-4.2-1.2-2-.5-3.3-.9-3.8-1.4-.5-.4-.7-1-.7-1.7,0-.8.3-1.5,1-2,.7-.6,1.8-.8,3.3-.8s2.6.3,3.3.9c.7.6,1.2,1.5,1.3,2.7l2.4-.2c0-1.1-.4-2.1-.9-3-.6-.9-1.4-1.6-2.5-2-1.1-.4-2.3-.7-3.7-.7-1.3,0-2.4.2-3.5.6-1.1.4-1.8,1.1-2.4,1.9-.6.8-.8,1.7-.8,2.7,0,.9.2,1.7.7,2.4.4.7,1.1,1.3,2,1.8.7.4,1.9.8,3.7,1.2,1.7.4,2.9.7,3.4.9.8.3,1.4.7,1.7,1.1.3.4.5,1,.5,1.6s-.2,1.1-.5,1.6c-.4.5-.9.9-1.6,1.2-.7.3-1.6.4-2.5.4-1.1,0-2.1-.2-2.9-.6-.9-.4-1.5-.9-1.9-1.5s-.7-1.4-.8-2.3l-2.4.2c0,1.3.4,2.4,1,3.4.7,1,1.6,1.8,2.7,2.3,1.2.5,2.6.8,4.3.8,1.4,0,2.6-.2,3.7-.7,1.1-.5,1.9-1.2,2.5-2.1.6-.9.9-1.8.9-2.9,0-1-.3-1.9-.8-2.7-.6-.7-1.4-1.4-2.5-1.9Z" style="fill: #fff;"/>
    <polygon points="750.99 274.78 761.6 274.78 761.6 272.57 750.99 272.57 750.99 266.67 762.3 266.67 762.3 264.47 748.49 264.47 748.49 283.48 762.7 283.48 762.7 281.28 750.99 281.28 750.99 274.78" style="fill: #fff;"/>
    <polygon points="778.81 279.38 768.8 264.47 766.2 264.47 766.2 283.48 768.6 283.48 768.6 268.57 778.61 283.48 781.21 283.48 781.21 264.47 778.81 264.47 778.81 279.38" style="fill: #fff;"/>
    <polygon points="795.42 274.78 805.92 274.78 805.92 272.57 795.42 272.57 795.42 266.67 806.62 266.67 806.62 264.47 792.82 264.47 792.82 283.48 807.02 283.48 807.02 281.28 795.42 281.28 795.42 274.78" style="fill: #fff;"/>
    <path d="m820.63,277.68c-.5,1.3-.8,2.4-1,3.1-.2-.6-.5-1.6-.9-2.8l-4.5-13.51h-3.8v19.01h2.4v-16.21l5.5,16.21h2.3l5.6-15.91v15.91h2.4v-19.01h-3.4l-4.6,13.21Z" style="fill: #fff;"/>
    <path d="m843.35,273.38c.9-.4,1.6-1,2-1.7s.7-1.5.7-2.3c0-.9-.2-1.7-.7-2.5-.5-.8-1.2-1.4-2.1-1.8-.9-.4-2-.6-3.5-.6h-7.1v19.01h7.3c1.2,0,2.2-.1,3.1-.3.8-.2,1.5-.5,2.1-.9.6-.4,1-1,1.4-1.8.4-.8.6-1.6.6-2.5,0-1.1-.3-2.1-.9-2.9-.8-.8-1.7-1.4-2.9-1.7Zm-4.4-6.7c1.4,0,2.3.1,2.9.3s1,.5,1.3,1,.5,1,.5,1.7-.2,1.2-.5,1.7c-.3.4-.8.8-1.4.9-.5.1-1.3.2-2.4.2h-4.1l-.1-5.8h3.8Zm5,12.91c-.3.5-.6.8-1,1.1-.4.2-.9.4-1.5.5-.3.1-.9.1-1.7.1h-4.7v-6.5h4.4c1.2,0,2.1.1,2.8.3.7.2,1.1.6,1.5,1.1.4.5.5,1.1.5,1.8.1.6,0,1.1-.3,1.6Z" style="fill: #fff;"/>
    <path d="m862.76,275.48h.2c0,2.4-.4,4-1.2,4.8-.8.8-2.1,1.3-4,1.3-1.1,0-2-.2-2.7-.6s-1.3-1-1.6-1.8c-.3-.8-.5-2-.5-3.7v-11.01h-2.5v11.01c0,2,.2,3.6.7,4.8.5,1.2,1.3,2.1,2.4,2.7,1.1.6,2.6.9,4.4.9s3.3-.4,4.4-1.1c1.1-.7,1.9-1.6,2.3-2.7.4-1.1.6-2.6.6-4.6v-11.01h-2.5v11.01Z" style="fill: #fff;"/>
    <path d="m882.37,266.07c-.8-.7-1.7-1.1-2.8-1.4-.8-.2-1.9-.3-3.4-.3h-6.6v19.01h6.9c1.2,0,2.2-.1,3.1-.3.9-.2,1.6-.5,2.3-1,.6-.4,1.2-1,1.7-1.7.5-.7,1-1.7,1.3-2.8.3-1.1.5-2.4.5-3.8,0-1.7-.2-3.2-.7-4.5-.5-1.2-1.3-2.3-2.3-3.2Zm-.1,11.41c-.3,1-.8,1.8-1.4,2.4-.4.4-1,.8-1.7,1-.7.2-1.7.4-3,.4h-4.1v-14.51h4c1.5,0,2.6.1,3.3.4.9.4,1.7,1.1,2.4,2.1.7,1,1,2.6,1,4.6,0,1.4-.2,2.6-.5,3.6Z" style="fill: #fff;"/>
    <path d="m901.99,265.37c-1.4-.8-3-1.3-4.8-1.3-2.7,0-4.9.9-6.6,2.7-1.7,1.8-2.5,4.3-2.5,7.4,0,1.7.4,3.3,1.1,4.8.7,1.5,1.8,2.7,3.2,3.5,1.4.8,3,1.3,4.8,1.3,1.7,0,3.2-.4,4.6-1.2,1.4-.8,2.5-1.9,3.3-3.5.8-1.5,1.2-3.2,1.2-5.2s-.4-3.6-1.1-5.1c-.7-1.4-1.8-2.6-3.2-3.4Zm-.1,14.31c-1.2,1.3-2.8,2-4.7,2s-3.4-.7-4.6-2-1.8-3.1-1.8-5.4c0-2.9.6-4.9,1.9-6.1,1.3-1.2,2.8-1.8,4.6-1.8,1.3,0,2.4.3,3.4,1,1,.7,1.8,1.5,2.3,2.7.5,1.2.8,2.5.8,4.1-.1,2.3-.7,4.2-1.9,5.5Z" style="fill: #fff;"/>
    <path d="m920.6,273.48c-.8-.3-2.2-.8-4.2-1.2-2-.5-3.3-.9-3.8-1.4-.5-.4-.7-1-.7-1.7,0-.8.3-1.5,1-2,.7-.6,1.8-.8,3.3-.8s2.6.3,3.3.9c.7.6,1.2,1.5,1.3,2.7l2.4-.2c0-1.1-.4-2.1-.9-3-.6-.9-1.4-1.6-2.5-2-1.1-.4-2.3-.7-3.7-.7-1.3,0-2.4.2-3.5.6-1.1.4-1.8,1.1-2.4,1.9-.6.8-.8,1.7-.8,2.7,0,.9.2,1.7.7,2.4.4.7,1.1,1.3,2,1.8.7.4,1.9.8,3.7,1.2,1.7.4,2.9.7,3.4.9.8.3,1.4.7,1.7,1.1.3.4.5,1,.5,1.6s-.2,1.1-.5,1.6c-.4.5-.9.9-1.6,1.2-.7.3-1.6.4-2.5.4-1.1,0-2.1-.2-2.9-.6-.9-.4-1.5-.9-1.9-1.5s-.7-1.4-.8-2.3l-2.4.2c0,1.3.4,2.4,1,3.4.7,1,1.6,1.8,2.7,2.3,1.2.5,2.6.8,4.3.8,1.4,0,2.6-.2,3.7-.7,1.1-.5,1.9-1.2,2.5-2.1.6-.9.9-1.8.9-2.9,0-1-.3-1.9-.8-2.7-.6-.7-1.4-1.4-2.5-1.9Z" style="fill: #fff;"/>
    <path d="m947.42,266.07c-.8-.7-1.7-1.1-2.8-1.4-.8-.2-1.9-.3-3.4-.3h-6.6v19.01h6.9c1.2,0,2.2-.1,3.1-.3.9-.2,1.6-.5,2.3-1,.6-.4,1.2-1,1.7-1.7.5-.7,1-1.7,1.3-2.8.3-1.1.5-2.4.5-3.8,0-1.7-.2-3.2-.7-4.5-.6-1.2-1.3-2.3-2.3-3.2Zm-.1,11.41c-.3,1-.8,1.8-1.4,2.4-.4.4-1,.8-1.7,1-.7.2-1.7.4-3,.4h-4.1v-14.51h4c1.5,0,2.6.1,3.3.4.9.4,1.7,1.1,2.4,2.1.7,1,1,2.6,1,4.6,0,1.4-.2,2.6-.5,3.6Z" style="fill: #fff;"/>
    <polygon points="956.42 274.78 967.03 274.78 967.03 272.57 956.42 272.57 956.42 266.67 967.73 266.67 967.73 264.47 953.92 264.47 953.92 283.48 968.13 283.48 968.13 281.28 956.42 281.28 956.42 274.78" style="fill: #fff;"/>
    <path d="m986.74,278.28c-.4,1-.7,2.1-1,3.1-.3-1-.6-2-1-3.1l-4.9-13.81h-2.7l7.4,19.01h2.6l7.5-19.01h-2.6l-5.3,13.81Z" style="fill: #fff;"/>
    <polygon points="999.35 274.78 1009.85 274.78 1009.85 272.57 999.35 272.57 999.35 266.67 1010.56 266.67 1010.56 264.47 996.85 264.47 996.85 283.48 1011.06 283.48 1011.06 281.28 999.35 281.28 999.35 274.78" style="fill: #fff;"/>
    <polygon points="1027.07 279.38 1017.06 264.47 1014.46 264.47 1014.46 283.48 1016.86 283.48 1016.86 268.57 1026.87 283.48 1029.47 283.48 1029.47 264.47 1027.07 264.47 1027.07 279.38" style="fill: #fff;"/>
    <polygon points="1047.38 264.47 1032.27 264.47 1032.27 266.67 1038.57 266.67 1038.57 283.48 1041.07 283.48 1041.07 266.67 1047.38 266.67 1047.38 264.47" style="fill: #fff;"/>
    <path d="m1053.18,264.47l-7.3,19.01h2.7l2.1-5.8h8.01l2.2,5.8h2.9l-7.8-19.01h-2.8Zm-1.8,11.21l2.1-5.6c.4-1.2.8-2.4,1-3.6.3,1,.7,2.3,1.3,3.9l2,5.3h-6.4Z" style="fill: #fff;"/>
    <path d="m1079.2,275.38c-.5-.8-1.3-1.4-2.5-1.9-.8-.3-2.2-.8-4.2-1.2-2-.5-3.3-.9-3.8-1.4-.5-.4-.7-1-.7-1.7,0-.8.3-1.5,1-2,.7-.6,1.8-.8,3.3-.8s2.6.3,3.3.9c.7.6,1.2,1.5,1.3,2.7l2.4-.2c0-1.1-.4-2.1-.9-3-.6-.9-1.4-1.6-2.5-2-1.1-.4-2.3-.7-3.7-.7-1.3,0-2.4.2-3.5.6-1.1.4-1.8,1.1-2.4,1.9-.6.8-.8,1.7-.8,2.7,0,.9.2,1.7.7,2.4.4.7,1.1,1.3,2,1.8.7.4,1.9.8,3.7,1.2,1.7.4,2.9.7,3.4.9.8.3,1.4.7,1.7,1.1.3.4.5,1,.5,1.6s-.2,1.1-.5,1.6c-.4.5-.9.9-1.6,1.2-.7.3-1.6.4-2.5.4-1.1,0-2.1-.2-2.9-.6-.9-.4-1.5-.9-1.9-1.5s-.7-1.4-.8-2.3l-2.4.2c0,1.3.4,2.4,1,3.4.7,1,1.6,1.8,2.7,2.3,1.2.5,2.6.8,4.3.8,1.4,0,2.6-.2,3.7-.7s1.9-1.2,2.5-2.1c.6-.9.9-1.8.9-2.9,0-1-.3-1.9-.8-2.7Z" style="fill: #fff;"/>
  </g>
  <polygon points="416.07 71.95 416.07 286.68 201.64 286.28 137.6 350.32 487.92 350.32 487.92 0 416.07 71.95" style="fill: #fff;"/>
  <polygon points="291.5 308.5 200.64 286.68 136.6 350.82 486.92 350.72 291.5 308.5" style="fill: #ccc;"/>
  <path d="m225.35,33.02C101.87,34.12,1.11,134.99,0,258.37c-.5,63.54,25.02,121.08,66.54,162.7l55.54-55.54c-27.62-28.02-44.13-66.94-42.63-109.77,2.8-77.45,65.84-140.49,143.29-143.29,42.83-1.5,81.65,15.01,109.77,42.63l55.54-55.54c-41.53-41.53-99.16-67.14-162.7-66.54Z" style="fill: #fff;"/>
  <path d="m227.25,33.02c-76.95,0-144.89,38.22-186.02,96.66,36.92-25.92,81.95-41.23,130.48-41.23,62.74,0,119.58,25.42,160.7,66.54l55.54-55.44c-41.13-41.13-97.96-66.54-160.7-66.54Z" style="fill: #ccc;"/>
  <path d="m79.46,255.46c.9-26.42,8.91-51.23,22.11-72.55-27.12,37.12-43.23,82.65-43.63,131.68-.3,34.02,6.9,66.24,19.91,95.26l44.33-44.33c-27.62-28.12-44.23-67.14-42.73-110.07Z" style="fill: #ccc;"/>
</svg>