<svg
   width="640"
   height="480"
   viewBox="0 0 169.33333 127"
   version="1.1"
   id="svg5"
   xml:space="preserve"
   xmlns="http://www.w3.org/2000/svg"
   xmlns:svg="http://www.w3.org/2000/svg"><defs
     id="defs2" /><g
     id="layer1"><path
       id="rect233"
       style="fill:#ffffff;stroke-width:0.264583"
       d="M 1.7097982e-6,-6.2499998e-7 H 169.33333 V 127 H 1.7097982e-6 Z" /><path
       style="fill:#808080;stroke-width:0.257392"
       d="m 45.589664,121.3325 c -4.730106,-0.56799 -8.534552,-3.79795 -10.067482,-8.54724 -0.517311,-1.60272 -0.57255,-2.27162 -0.537387,-6.50738 0.04673,-5.62907 0.447063,-7.917153 1.898133,-10.848612 0.726562,-1.467806 1.481728,-2.500214 2.677232,-3.660111 3.273992,-3.176479 5.858682,-4.612988 15.89473,-8.833902 3.569654,-1.50131 8.732812,-3.810462 11.473687,-5.131451 5.5611,-2.680226 6.01717,-3.061668 6.68813,-5.593773 0.69791,-2.633843 0.69384,-2.643729 -2.28102,-5.548309 -4.22993,-4.129985 -6.94924,-8.834905 -8.473347,-14.660462 -0.195874,-0.748681 -0.453084,-1.120913 -0.858056,-1.24178 -1.694389,-0.505693 -3.596312,-2.796631 -4.382108,-5.278418 -0.592729,-1.872024 -0.624692,-4.788925 -0.07001,-6.389114 0.457492,-1.31981 2.123871,-2.991753 2.981795,-2.991753 0.493973,0 0.518467,-0.09166 0.32392,-1.21216 -0.351524,-2.024621 -0.181385,-8.407049 0.29422,-11.037035 0.492067,-2.721009 1.385472,-5.528131 2.362748,-7.423859 2.687768,-5.213759 13.925498,-10.9863902 21.387488,-10.9863902 7.69862,0 18.644683,5.8311952 21.544003,11.4769442 1.87248,3.646199 2.76837,8.961075 2.55055,15.131084 -0.13371,3.787333 -0.11274,4.041716 0.34488,4.184488 0.74249,0.231645 2.19872,2.038848 2.53688,3.148293 0.48022,1.57554 0.3717,4.440239 -0.2353,6.211409 -0.87371,2.549412 -2.64481,4.66496 -4.32533,5.166511 -0.40651,0.121323 -0.65983,0.490259 -0.85263,1.24178 -0.47876,1.86618 -1.58867,4.844766 -2.39533,6.428196 -1.92185,3.77251 -5.529353,8.299307 -7.854093,9.855545 -0.74839,0.500992 -0.90752,0.765454 -0.90899,1.510662 -0.003,1.418932 0.73586,3.844007 1.45189,4.7668 0.78203,1.007825 8.259453,4.697507 16.199903,7.99372 10.34721,4.2953 13.69547,6.129612 16.82591,9.217922 1.1415,1.126148 1.94675,2.235963 2.65422,3.658128 1.46505,2.945054 1.8863,5.388557 1.91371,11.100837 0.0215,4.47571 -0.0124,4.81523 -0.65118,6.53342 -1.78482,4.8005 -5.15405,7.60093 -9.92267,8.24752 -2.32301,0.31499 -75.57569,0.3323 -78.189097,0.0185 z"
       id="path179" /></g></svg>
